<?xml version="1.0" encoding="UTF-8" standalone="no"?>
<!-- Created with Inkscape (http://www.inkscape.org/) -->

<svg
   width="162.61475mm"
   height="42.504982mm"
   viewBox="0 0 162.61475 42.504982"
   version="1.1"
   id="svg5908"
   inkscape:version="1.2 (1:1.2.1+202207142221+cd75a1ee6d)"
   sodipodi:docname="button-email.svg"
   xml:space="preserve"
   xmlns:inkscape="http://www.inkscape.org/namespaces/inkscape"
   xmlns:sodipodi="http://sodipodi.sourceforge.net/DTD/sodipodi-0.dtd"
   xmlns:xlink="http://www.w3.org/1999/xlink"
   xmlns="http://www.w3.org/2000/svg"
   xmlns:svg="http://www.w3.org/2000/svg"><sodipodi:namedview
     id="namedview5910"
     pagecolor="#ffffff"
     bordercolor="#000000"
     borderopacity="0.25"
     inkscape:showpageshadow="2"
     inkscape:pageopacity="0.0"
     inkscape:pagecheckerboard="0"
     inkscape:deskcolor="#d1d1d1"
     inkscape:document-units="mm"
     showgrid="false"
     inkscape:zoom="3.0289001"
     inkscape:cx="439.92867"
     inkscape:cy="86.004817"
     inkscape:window-width="1920"
     inkscape:window-height="1016"
     inkscape:window-x="0"
     inkscape:window-y="27"
     inkscape:window-maximized="1"
     inkscape:current-layer="layer1" /><defs
     id="defs5905"><rect
       x="307.68576"
       y="157.1521"
       width="360.87823"
       height="72.357704"
       id="rect14431" /><linearGradient
       inkscape:collect="always"
       id="linearGradient11126"><stop
         style="stop-color:#4d4d4d;stop-opacity:1"
         offset="0"
         id="stop11122" /><stop
         style="stop-color:#000000;stop-opacity:1"
         offset="1"
         id="stop11124" /></linearGradient><linearGradient
       inkscape:collect="always"
       id="linearGradient8212"><stop
         style="stop-color:#ffd800;stop-opacity:1;"
         offset="0"
         id="stop8208" /><stop
         style="stop-color:#ff8200;stop-opacity:1"
         offset="1"
         id="stop8210" /></linearGradient><linearGradient
       inkscape:collect="always"
       xlink:href="#linearGradient8212"
       id="linearGradient8214"
       x1="48.9021"
       y1="36.847538"
       x2="48.948555"
       y2="62.087257"
       gradientUnits="userSpaceOnUse" /><linearGradient
       inkscape:collect="always"
       xlink:href="#linearGradient11126"
       id="linearGradient11128"
       x1="125.76425"
       y1="36.398819"
       x2="125.76425"
       y2="67.534119"
       gradientUnits="userSpaceOnUse"
       gradientTransform="matrix(0.87794068,0,0,1,2.3358131,0)" /><filter
       inkscape:collect="always"
       style="color-interpolation-filters:sRGB"
       id="filter1462"
       x="-0.050814329"
       y="-0.021305909"
       width="1.1016287"
       height="1.0426118"><feGaussianBlur
         inkscape:collect="always"
         stdDeviation="1.8720872"
         id="feGaussianBlur1464" /></filter></defs><g
     inkscape:label="Calque 1"
     inkscape:groupmode="layer"
     id="layer1"
     transform="translate(-17.574219,-31.861572)"
     style="display:inline"><rect
       style="fill:url(#linearGradient11128);fill-opacity:1;stroke-width:0.620285"
       id="rect6049"
       width="157.03822"
       height="31.1353"
       x="19.136703"
       y="36.398819"
       ry="12.940141"
       inkscape:label="rectangle-noir" /><g
       id="g1460"
       inkscape:label="laurel-ombre"
       style="display:inline;fill:#000000;fill-opacity:1;filter:url(#filter1462)"
       transform="matrix(-0.19332139,0,0,0.19332139,188.26409,19.364224)"><g
         id="g1298"
         style="fill:#000000;fill-opacity:1"><path
           style="display:inline;fill:#000000;fill-opacity:1;stroke-width:0.555496"
           d="m 134.68364,253.7237 -2.78341,-2.31982 c -10.48924,18.18099 -17.57054,20.14513 -24.96125,23.58164 l 4.99814,5.03385 c 10.81605,-5.23837 16.36626,-16.88292 22.74652,-26.29567 z"
           id="path1294"
           sodipodi:nodetypes="ccccc" /><path
           id="path1296"
           style="fill:#000000;fill-opacity:1;stroke-width:0.555496"
           d="m 133.11709,252.564 c -7.54132,13.97328 -15.36204,20.16408 -23.85384,24.93853 l 2.49907,2.51664 c 10.81604,-5.23837 16.36617,-16.88281 22.74642,-26.29555 l -1.39113,-1.15962 z"
           sodipodi:nodetypes="cccccc" /></g><g
         id="g1318"
         inkscape:transform-center-x="34.308576"
         inkscape:transform-center-y="72.650431"
         transform="rotate(1.2147951,131.0108,221.99274)"
         style="fill:#000000;fill-opacity:1"><g
           id="g1316"
           inkscape:transform-center-x="33.789576"
           inkscape:transform-center-y="61.696307"
           style="fill:#000000;fill-opacity:1"><g
             id="g1306"
             style="fill:#000000;fill-opacity:1"><g
               id="g1304"
               style="fill:#000000;fill-opacity:1"><path
                 id="path1300"
                 style="fill:#000000;fill-opacity:1;stroke-width:0.213005"
                 inkscape:transform-center-x="-34.773171"
                 inkscape:transform-center-y="50.241881"
                 d="m 105.05849,221.99282 c 8.83504,11.28032 20.59578,11.01975 25.95211,26.33186 -18.61616,-8.7477 -25.13702,-7.06071 -25.95211,-26.33186 z" /><path
                 id="path1302"
                 style="fill:#000000;fill-opacity:1;stroke-width:0.213005"
                 inkscape:transform-center-x="-34.773171"
                 inkscape:transform-center-y="50.241881"
                 d="m 105.05838,221.99274 c 4e-5,8.8e-4 -3e-5,0.002 0,0.003 0,0 2.73587,9.81328 10.51047,15.04559 7.7746,5.23231 15.44195,11.28355 15.44195,11.28355 -5.35632,-15.3121 -17.11739,-15.05142 -25.95242,-26.33173 z"
                 sodipodi:nodetypes="cczcc" /></g></g><g
             id="g1314"
             transform="matrix(0.69647391,0.71758212,0.71758212,-0.69647391,-138.81001,329.29365)"
             style="fill:#000000;fill-opacity:1"><g
               id="g1312"
               style="fill:#000000;fill-opacity:1"><path
                 id="path1308"
                 style="fill:#000000;fill-opacity:1;stroke-width:0.213005"
                 inkscape:transform-center-x="-34.773171"
                 inkscape:transform-center-y="50.241881"
                 d="m 105.05849,221.99282 c 8.83504,11.28032 20.59578,11.01975 25.95211,26.33186 -18.61616,-8.7477 -25.13702,-7.06071 -25.95211,-26.33186 z" /><path
                 id="path1310"
                 style="fill:#000000;fill-opacity:1;stroke-width:0.213005"
                 inkscape:transform-center-x="-34.773171"
                 inkscape:transform-center-y="50.241881"
                 d="m 105.05838,221.99274 c 4e-5,8.8e-4 -3e-5,0.002 0,0.003 0,0 2.73587,9.81328 10.51047,15.04559 7.7746,5.23231 15.44195,11.28355 15.44195,11.28355 -5.35632,-15.3121 -17.11739,-15.05142 -25.95242,-26.33173 z"
                 sodipodi:nodetypes="cczcc" /></g></g></g></g><g
         id="g1338"
         inkscape:transform-center-x="34.308576"
         inkscape:transform-center-y="72.650431"
         transform="rotate(19.515331,144.5683,167.85574)"
         style="fill:#000000;fill-opacity:1"><g
           id="g1336"
           inkscape:transform-center-x="33.789576"
           inkscape:transform-center-y="61.696307"
           style="fill:#000000;fill-opacity:1"><g
             id="g1326"
             style="fill:#000000;fill-opacity:1"><g
               id="g1324"
               style="fill:#000000;fill-opacity:1"><path
                 id="path1320"
                 style="fill:#000000;fill-opacity:1;stroke-width:0.213005"
                 inkscape:transform-center-x="-34.773171"
                 inkscape:transform-center-y="50.241881"
                 d="m 105.05849,221.99282 c 8.83504,11.28032 20.59578,11.01975 25.95211,26.33186 -18.61616,-8.7477 -25.13702,-7.06071 -25.95211,-26.33186 z" /><path
                 id="path1322"
                 style="fill:#000000;fill-opacity:1;stroke-width:0.213005"
                 inkscape:transform-center-x="-34.773171"
                 inkscape:transform-center-y="50.241881"
                 d="m 105.05838,221.99274 c 4e-5,8.8e-4 -3e-5,0.002 0,0.003 0,0 2.73587,9.81328 10.51047,15.04559 7.7746,5.23231 15.44195,11.28355 15.44195,11.28355 -5.35632,-15.3121 -17.11739,-15.05142 -25.95242,-26.33173 z"
                 sodipodi:nodetypes="cczcc" /></g></g><g
             id="g1334"
             transform="matrix(0.69647391,0.71758212,0.71758212,-0.69647391,-138.81001,329.29365)"
             style="fill:#000000;fill-opacity:1"><g
               id="g1332"
               style="fill:#000000;fill-opacity:1"><path
                 id="path1328"
                 style="fill:#000000;fill-opacity:1;stroke-width:0.213005"
                 inkscape:transform-center-x="-34.773171"
                 inkscape:transform-center-y="50.241881"
                 d="m 105.05849,221.99282 c 8.83504,11.28032 20.59578,11.01975 25.95211,26.33186 -18.61616,-8.7477 -25.13702,-7.06071 -25.95211,-26.33186 z" /><path
                 id="path1330"
                 style="fill:#000000;fill-opacity:1;stroke-width:0.213005"
                 inkscape:transform-center-x="-34.773171"
                 inkscape:transform-center-y="50.241881"
                 d="m 105.05838,221.99274 c 4e-5,8.8e-4 -3e-5,0.002 0,0.003 0,0 2.73587,9.81328 10.51047,15.04559 7.7746,5.23231 15.44195,11.28355 15.44195,11.28355 -5.35632,-15.3121 -17.11739,-15.05142 -25.95242,-26.33173 z"
                 sodipodi:nodetypes="cczcc" /></g></g></g></g><g
         id="g1358"
         inkscape:transform-center-x="34.308576"
         inkscape:transform-center-y="72.650431"
         transform="rotate(37.444452,145.00705,166.10377)"
         style="fill:#000000;fill-opacity:1"><g
           id="g1356"
           inkscape:transform-center-x="33.789576"
           inkscape:transform-center-y="61.696307"
           style="fill:#000000;fill-opacity:1"><g
             id="g1346"
             style="fill:#000000;fill-opacity:1"><g
               id="g1344"
               style="fill:#000000;fill-opacity:1"><path
                 id="path1340"
                 style="fill:#000000;fill-opacity:1;stroke-width:0.213005"
                 inkscape:transform-center-x="-34.773171"
                 inkscape:transform-center-y="50.241881"
                 d="m 105.05849,221.99282 c 8.83504,11.28032 20.59578,11.01975 25.95211,26.33186 -18.61616,-8.7477 -25.13702,-7.06071 -25.95211,-26.33186 z" /><path
                 id="path1342"
                 style="fill:#000000;fill-opacity:1;stroke-width:0.213005"
                 inkscape:transform-center-x="-34.773171"
                 inkscape:transform-center-y="50.241881"
                 d="m 105.05838,221.99274 c 4e-5,8.8e-4 -3e-5,0.002 0,0.003 0,0 2.73587,9.81328 10.51047,15.04559 7.7746,5.23231 15.44195,11.28355 15.44195,11.28355 -5.35632,-15.3121 -17.11739,-15.05142 -25.95242,-26.33173 z"
                 sodipodi:nodetypes="cczcc" /></g></g><g
             id="g1354"
             transform="matrix(0.69647391,0.71758212,0.71758212,-0.69647391,-138.81001,329.29365)"
             style="fill:#000000;fill-opacity:1"><g
               id="g1352"
               style="fill:#000000;fill-opacity:1"><path
                 id="path1348"
                 style="fill:#000000;fill-opacity:1;stroke-width:0.213005"
                 inkscape:transform-center-x="-34.773171"
                 inkscape:transform-center-y="50.241881"
                 d="m 105.05849,221.99282 c 8.83504,11.28032 20.59578,11.01975 25.95211,26.33186 -18.61616,-8.7477 -25.13702,-7.06071 -25.95211,-26.33186 z" /><path
                 id="path1350"
                 style="fill:#000000;fill-opacity:1;stroke-width:0.213005"
                 inkscape:transform-center-x="-34.773171"
                 inkscape:transform-center-y="50.241881"
                 d="m 105.05838,221.99274 c 4e-5,8.8e-4 -3e-5,0.002 0,0.003 0,0 2.73587,9.81328 10.51047,15.04559 7.7746,5.23231 15.44195,11.28355 15.44195,11.28355 -5.35632,-15.3121 -17.11739,-15.05142 -25.95242,-26.33173 z"
                 sodipodi:nodetypes="cczcc" /></g></g></g></g><g
         id="g1378"
         inkscape:transform-center-x="34.308576"
         inkscape:transform-center-y="72.650431"
         transform="rotate(55.513248,145.16795,165.46128)"
         style="fill:#000000;fill-opacity:1"><g
           id="g1376"
           inkscape:transform-center-x="33.789576"
           inkscape:transform-center-y="61.696307"
           style="fill:#000000;fill-opacity:1"><g
             id="g1366"
             style="fill:#000000;fill-opacity:1"><g
               id="g1364"
               style="fill:#000000;fill-opacity:1"><path
                 id="path1360"
                 style="fill:#000000;fill-opacity:1;stroke-width:0.213005"
                 inkscape:transform-center-x="-34.773171"
                 inkscape:transform-center-y="50.241881"
                 d="m 105.05849,221.99282 c 8.83504,11.28032 20.59578,11.01975 25.95211,26.33186 -18.61616,-8.7477 -25.13702,-7.06071 -25.95211,-26.33186 z" /><path
                 id="path1362"
                 style="fill:#000000;fill-opacity:1;stroke-width:0.213005"
                 inkscape:transform-center-x="-34.773171"
                 inkscape:transform-center-y="50.241881"
                 d="m 105.05838,221.99274 c 4e-5,8.8e-4 -3e-5,0.002 0,0.003 0,0 2.73587,9.81328 10.51047,15.04559 7.7746,5.23231 15.44195,11.28355 15.44195,11.28355 -5.35632,-15.3121 -17.11739,-15.05142 -25.95242,-26.33173 z"
                 sodipodi:nodetypes="cczcc" /></g></g><g
             id="g1374"
             transform="matrix(0.69647391,0.71758212,0.71758212,-0.69647391,-138.81001,329.29365)"
             style="fill:#000000;fill-opacity:1"><g
               id="g1372"
               style="fill:#000000;fill-opacity:1"><path
                 id="path1368"
                 style="fill:#000000;fill-opacity:1;stroke-width:0.213005"
                 inkscape:transform-center-x="-34.773171"
                 inkscape:transform-center-y="50.241881"
                 d="m 105.05849,221.99282 c 8.83504,11.28032 20.59578,11.01975 25.95211,26.33186 -18.61616,-8.7477 -25.13702,-7.06071 -25.95211,-26.33186 z" /><path
                 id="path1370"
                 style="fill:#000000;fill-opacity:1;stroke-width:0.213005"
                 inkscape:transform-center-x="-34.773171"
                 inkscape:transform-center-y="50.241881"
                 d="m 105.05838,221.99274 c 4e-5,8.8e-4 -3e-5,0.002 0,0.003 0,0 2.73587,9.81328 10.51047,15.04559 7.7746,5.23231 15.44195,11.28355 15.44195,11.28355 -5.35632,-15.3121 -17.11739,-15.05142 -25.95242,-26.33173 z"
                 sodipodi:nodetypes="cczcc" /></g></g></g></g><g
         id="g1398"
         inkscape:transform-center-x="34.308576"
         inkscape:transform-center-y="72.650431"
         transform="rotate(74.303034,145.25685,165.10629)"
         style="fill:#000000;fill-opacity:1"><g
           id="g1396"
           inkscape:transform-center-x="33.789576"
           inkscape:transform-center-y="61.696307"
           style="fill:#000000;fill-opacity:1"><g
             id="g1386"
             style="fill:#000000;fill-opacity:1"><g
               id="g1384"
               style="fill:#000000;fill-opacity:1"><path
                 id="path1380"
                 style="fill:#000000;fill-opacity:1;stroke-width:0.213005"
                 inkscape:transform-center-x="-34.773171"
                 inkscape:transform-center-y="50.241881"
                 d="m 105.05849,221.99282 c 8.83504,11.28032 20.59578,11.01975 25.95211,26.33186 -18.61616,-8.7477 -25.13702,-7.06071 -25.95211,-26.33186 z" /><path
                 id="path1382"
                 style="fill:#000000;fill-opacity:1;stroke-width:0.213005"
                 inkscape:transform-center-x="-34.773171"
                 inkscape:transform-center-y="50.241881"
                 d="m 105.05838,221.99274 c 4e-5,8.8e-4 -3e-5,0.002 0,0.003 0,0 2.73587,9.81328 10.51047,15.04559 7.7746,5.23231 15.44195,11.28355 15.44195,11.28355 -5.35632,-15.3121 -17.11739,-15.05142 -25.95242,-26.33173 z"
                 sodipodi:nodetypes="cczcc" /></g></g><g
             id="g1394"
             transform="matrix(0.69647391,0.71758212,0.71758212,-0.69647391,-138.81001,329.29365)"
             style="fill:#000000;fill-opacity:1"><g
               id="g1392"
               style="fill:#000000;fill-opacity:1"><path
                 id="path1388"
                 style="fill:#000000;fill-opacity:1;stroke-width:0.213005"
                 inkscape:transform-center-x="-34.773171"
                 inkscape:transform-center-y="50.241881"
                 d="m 105.05849,221.99282 c 8.83504,11.28032 20.59578,11.01975 25.95211,26.33186 -18.61616,-8.7477 -25.13702,-7.06071 -25.95211,-26.33186 z" /><path
                 id="path1390"
                 style="fill:#000000;fill-opacity:1;stroke-width:0.213005"
                 inkscape:transform-center-x="-34.773171"
                 inkscape:transform-center-y="50.241881"
                 d="m 105.05838,221.99274 c 4e-5,8.8e-4 -3e-5,0.002 0,0.003 0,0 2.73587,9.81328 10.51047,15.04559 7.7746,5.23231 15.44195,11.28355 15.44195,11.28355 -5.35632,-15.3121 -17.11739,-15.05142 -25.95242,-26.33173 z"
                 sodipodi:nodetypes="cczcc" /></g></g></g></g><g
         id="g1418"
         inkscape:transform-center-x="34.308576"
         inkscape:transform-center-y="72.650431"
         transform="rotate(92.975253,145.31358,164.87974)"
         style="fill:#000000;fill-opacity:1"><g
           id="g1416"
           inkscape:transform-center-x="33.789576"
           inkscape:transform-center-y="61.696307"
           style="fill:#000000;fill-opacity:1"><g
             id="g1406"
             style="fill:#000000;fill-opacity:1"><g
               id="g1404"
               style="fill:#000000;fill-opacity:1"><path
                 id="path1400"
                 style="fill:#000000;fill-opacity:1;stroke-width:0.213005"
                 inkscape:transform-center-x="-34.773171"
                 inkscape:transform-center-y="50.241881"
                 d="m 105.05849,221.99282 c 8.83504,11.28032 20.59578,11.01975 25.95211,26.33186 -18.61616,-8.7477 -25.13702,-7.06071 -25.95211,-26.33186 z" /><path
                 id="path1402"
                 style="fill:#000000;fill-opacity:1;stroke-width:0.213005"
                 inkscape:transform-center-x="-34.773171"
                 inkscape:transform-center-y="50.241881"
                 d="m 105.05838,221.99274 c 4e-5,8.8e-4 -3e-5,0.002 0,0.003 0,0 2.73587,9.81328 10.51047,15.04559 7.7746,5.23231 15.44195,11.28355 15.44195,11.28355 -5.35632,-15.3121 -17.11739,-15.05142 -25.95242,-26.33173 z"
                 sodipodi:nodetypes="cczcc" /></g></g><g
             id="g1414"
             transform="matrix(0.69647391,0.71758212,0.71758212,-0.69647391,-138.81001,329.29365)"
             style="fill:#000000;fill-opacity:1"><g
               id="g1412"
               style="fill:#000000;fill-opacity:1"><path
                 id="path1408"
                 style="fill:#000000;fill-opacity:1;stroke-width:0.213005"
                 inkscape:transform-center-x="-34.773171"
                 inkscape:transform-center-y="50.241881"
                 d="m 105.05849,221.99282 c 8.83504,11.28032 20.59578,11.01975 25.95211,26.33186 -18.61616,-8.7477 -25.13702,-7.06071 -25.95211,-26.33186 z" /><path
                 id="path1410"
                 style="fill:#000000;fill-opacity:1;stroke-width:0.213005"
                 inkscape:transform-center-x="-34.773171"
                 inkscape:transform-center-y="50.241881"
                 d="m 105.05838,221.99274 c 4e-5,8.8e-4 -3e-5,0.002 0,0.003 0,0 2.73587,9.81328 10.51047,15.04559 7.7746,5.23231 15.44195,11.28355 15.44195,11.28355 -5.35632,-15.3121 -17.11739,-15.05142 -25.95242,-26.33173 z"
                 sodipodi:nodetypes="cczcc" /></g></g></g></g><g
         id="g1438"
         inkscape:transform-center-x="34.308576"
         inkscape:transform-center-y="72.650431"
         transform="rotate(111.75515,145.35521,164.71353)"
         style="fill:#000000;fill-opacity:1"><g
           id="g1436"
           inkscape:transform-center-x="33.789576"
           inkscape:transform-center-y="61.696307"
           style="fill:#000000;fill-opacity:1"><g
             id="g1426"
             style="fill:#000000;fill-opacity:1"><g
               id="g1424"
               style="fill:#000000;fill-opacity:1"><path
                 id="path1420"
                 style="fill:#000000;fill-opacity:1;stroke-width:0.213005"
                 inkscape:transform-center-x="-34.773171"
                 inkscape:transform-center-y="50.241881"
                 d="m 105.05849,221.99282 c 8.83504,11.28032 20.59578,11.01975 25.95211,26.33186 -18.61616,-8.7477 -25.13702,-7.06071 -25.95211,-26.33186 z" /><path
                 id="path1422"
                 style="fill:#000000;fill-opacity:1;stroke-width:0.213005"
                 inkscape:transform-center-x="-34.773171"
                 inkscape:transform-center-y="50.241881"
                 d="m 105.05838,221.99274 c 4e-5,8.8e-4 -3e-5,0.002 0,0.003 0,0 2.73587,9.81328 10.51047,15.04559 7.7746,5.23231 15.44195,11.28355 15.44195,11.28355 -5.35632,-15.3121 -17.11739,-15.05142 -25.95242,-26.33173 z"
                 sodipodi:nodetypes="cczcc" /></g></g><g
             id="g1434"
             transform="matrix(0.69647391,0.71758212,0.71758212,-0.69647391,-138.81001,329.29365)"
             style="fill:#000000;fill-opacity:1"><g
               id="g1432"
               style="fill:#000000;fill-opacity:1"><path
                 id="path1428"
                 style="fill:#000000;fill-opacity:1;stroke-width:0.213005"
                 inkscape:transform-center-x="-34.773171"
                 inkscape:transform-center-y="50.241881"
                 d="m 105.05849,221.99282 c 8.83504,11.28032 20.59578,11.01975 25.95211,26.33186 -18.61616,-8.7477 -25.13702,-7.06071 -25.95211,-26.33186 z" /><path
                 id="path1430"
                 style="fill:#000000;fill-opacity:1;stroke-width:0.213005"
                 inkscape:transform-center-x="-34.773171"
                 inkscape:transform-center-y="50.241881"
                 d="m 105.05838,221.99274 c 4e-5,8.8e-4 -3e-5,0.002 0,0.003 0,0 2.73587,9.81328 10.51047,15.04559 7.7746,5.23231 15.44195,11.28355 15.44195,11.28355 -5.35632,-15.3121 -17.11739,-15.05142 -25.95242,-26.33173 z"
                 sodipodi:nodetypes="cczcc" /></g></g></g></g><g
         id="g1458"
         inkscape:transform-center-x="35.960422"
         inkscape:transform-center-y="-79.677834"
         transform="rotate(131.57704,145.39012,164.5741)"
         inkscape:label="g4714"
         style="fill:#000000;fill-opacity:1"><g
           id="g1456"
           inkscape:transform-center-x="33.789576"
           inkscape:transform-center-y="61.696307"
           style="fill:#000000;fill-opacity:1"><g
             id="g1446"
             style="fill:#000000;fill-opacity:1"><g
               id="g1444"
               style="fill:#000000;fill-opacity:1"><path
                 id="path1440"
                 style="fill:#000000;fill-opacity:1;stroke-width:0.213005"
                 inkscape:transform-center-x="-34.773171"
                 inkscape:transform-center-y="50.241881"
                 d="m 105.05849,221.99282 c 8.83504,11.28032 20.59578,11.01975 25.95211,26.33186 -18.61616,-8.7477 -25.13702,-7.06071 -25.95211,-26.33186 z" /><path
                 id="path1442"
                 style="fill:#000000;fill-opacity:1;stroke-width:0.213005"
                 inkscape:transform-center-x="-34.773171"
                 inkscape:transform-center-y="50.241881"
                 d="m 105.05838,221.99274 c 4e-5,8.8e-4 -3e-5,0.002 0,0.003 0,0 2.73587,9.81328 10.51047,15.04559 7.7746,5.23231 15.44195,11.28355 15.44195,11.28355 -5.35632,-15.3121 -17.11739,-15.05142 -25.95242,-26.33173 z"
                 sodipodi:nodetypes="cczcc" /></g></g><g
             id="g1454"
             transform="matrix(0.69647391,0.71758212,0.71758212,-0.69647391,-138.81001,329.29365)"
             style="fill:#000000;fill-opacity:1"><g
               id="g1452"
               style="fill:#000000;fill-opacity:1"><path
                 id="path1448"
                 style="fill:#000000;fill-opacity:1;stroke-width:0.213005"
                 inkscape:transform-center-x="-34.773171"
                 inkscape:transform-center-y="50.241881"
                 d="m 105.05849,221.99282 c 8.83504,11.28032 20.59578,11.01975 25.95211,26.33186 -18.61616,-8.7477 -25.13702,-7.06071 -25.95211,-26.33186 z" /><path
                 id="path1450"
                 style="fill:#000000;fill-opacity:1;stroke-width:0.213005"
                 inkscape:transform-center-x="-34.773171"
                 inkscape:transform-center-y="50.241881"
                 d="m 105.05838,221.99274 c 4e-5,8.8e-4 -3e-5,0.002 0,0.003 0,0 2.73587,9.81328 10.51047,15.04559 7.7746,5.23231 15.44195,11.28355 15.44195,11.28355 -5.35632,-15.3121 -17.11739,-15.05142 -25.95242,-26.33173 z"
                 sodipodi:nodetypes="cczcc" /></g></g></g></g></g><g
       id="g5157"
       inkscape:label="laurel-droite"
       style="display:inline;fill:#000000;fill-opacity:0.508608"
       transform="matrix(-0.19332139,0,0,0.19332139,187.20575,19.364224)"><g
         id="g7243"><path
           style="display:inline;fill:#ffd800;fill-opacity:1;stroke-width:0.555496"
           d="m 134.68364,253.7237 -2.78341,-2.31982 c -10.48924,18.18099 -17.57054,20.14513 -24.96125,23.58164 l 4.99814,5.03385 c 10.81605,-5.23837 16.36626,-16.88292 22.74652,-26.29567 z"
           id="path23542"
           sodipodi:nodetypes="ccccc" /><path
           id="path23434"
           style="fill:#ff8200;fill-opacity:1;stroke-width:0.555496"
           d="m 133.11709,252.564 c -7.54132,13.97328 -15.36204,20.16408 -23.85384,24.93853 l 2.49907,2.51664 c 10.81604,-5.23837 16.36617,-16.88281 22.74642,-26.29555 l -1.39113,-1.15962 z"
           sodipodi:nodetypes="cccccc" /></g><g
         id="g4934"
         inkscape:transform-center-x="34.308576"
         inkscape:transform-center-y="72.650431"
         transform="rotate(1.2147951,131.0108,221.99274)"><g
           id="g4932"
           inkscape:transform-center-x="33.789576"
           inkscape:transform-center-y="61.696307"><g
             id="g4922"><g
               id="g4920"><path
                 id="path4916"
                 style="fill:#ff8200;fill-opacity:1;stroke-width:0.213005"
                 inkscape:transform-center-x="-34.773171"
                 inkscape:transform-center-y="50.241881"
                 d="m 105.05849,221.99282 c 8.83504,11.28032 20.59578,11.01975 25.95211,26.33186 -18.61616,-8.7477 -25.13702,-7.06071 -25.95211,-26.33186 z" /><path
                 id="path4918"
                 style="fill:#ffd800;fill-opacity:1;stroke-width:0.213005"
                 inkscape:transform-center-x="-34.773171"
                 inkscape:transform-center-y="50.241881"
                 d="m 105.05838,221.99274 c 4e-5,8.8e-4 -3e-5,0.002 0,0.003 0,0 2.73587,9.81328 10.51047,15.04559 7.7746,5.23231 15.44195,11.28355 15.44195,11.28355 -5.35632,-15.3121 -17.11739,-15.05142 -25.95242,-26.33173 z"
                 sodipodi:nodetypes="cczcc" /></g></g><g
             id="g4930"
             transform="matrix(0.69647391,0.71758212,0.71758212,-0.69647391,-138.81001,329.29365)"><g
               id="g4928"><path
                 id="path4924"
                 style="fill:#ffd800;fill-opacity:1;stroke-width:0.213005"
                 inkscape:transform-center-x="-34.773171"
                 inkscape:transform-center-y="50.241881"
                 d="m 105.05849,221.99282 c 8.83504,11.28032 20.59578,11.01975 25.95211,26.33186 -18.61616,-8.7477 -25.13702,-7.06071 -25.95211,-26.33186 z" /><path
                 id="path4926"
                 style="fill:#ff8200;fill-opacity:1;stroke-width:0.213005"
                 inkscape:transform-center-x="-34.773171"
                 inkscape:transform-center-y="50.241881"
                 d="m 105.05838,221.99274 c 4e-5,8.8e-4 -3e-5,0.002 0,0.003 0,0 2.73587,9.81328 10.51047,15.04559 7.7746,5.23231 15.44195,11.28355 15.44195,11.28355 -5.35632,-15.3121 -17.11739,-15.05142 -25.95242,-26.33173 z"
                 sodipodi:nodetypes="cczcc" /></g></g></g></g><g
         id="g4954"
         inkscape:transform-center-x="34.308576"
         inkscape:transform-center-y="72.650431"
         transform="rotate(19.515331,144.5683,167.85574)"><g
           id="g4952"
           inkscape:transform-center-x="33.789576"
           inkscape:transform-center-y="61.696307"><g
             id="g4942"><g
               id="g4940"><path
                 id="path4936"
                 style="fill:#ff8200;fill-opacity:1;stroke-width:0.213005"
                 inkscape:transform-center-x="-34.773171"
                 inkscape:transform-center-y="50.241881"
                 d="m 105.05849,221.99282 c 8.83504,11.28032 20.59578,11.01975 25.95211,26.33186 -18.61616,-8.7477 -25.13702,-7.06071 -25.95211,-26.33186 z" /><path
                 id="path4938"
                 style="fill:#ffd800;fill-opacity:1;stroke-width:0.213005"
                 inkscape:transform-center-x="-34.773171"
                 inkscape:transform-center-y="50.241881"
                 d="m 105.05838,221.99274 c 4e-5,8.8e-4 -3e-5,0.002 0,0.003 0,0 2.73587,9.81328 10.51047,15.04559 7.7746,5.23231 15.44195,11.28355 15.44195,11.28355 -5.35632,-15.3121 -17.11739,-15.05142 -25.95242,-26.33173 z"
                 sodipodi:nodetypes="cczcc" /></g></g><g
             id="g4950"
             transform="matrix(0.69647391,0.71758212,0.71758212,-0.69647391,-138.81001,329.29365)"><g
               id="g4948"><path
                 id="path4944"
                 style="fill:#ffd800;fill-opacity:1;stroke-width:0.213005"
                 inkscape:transform-center-x="-34.773171"
                 inkscape:transform-center-y="50.241881"
                 d="m 105.05849,221.99282 c 8.83504,11.28032 20.59578,11.01975 25.95211,26.33186 -18.61616,-8.7477 -25.13702,-7.06071 -25.95211,-26.33186 z" /><path
                 id="path4946"
                 style="fill:#ff8200;fill-opacity:1;stroke-width:0.213005"
                 inkscape:transform-center-x="-34.773171"
                 inkscape:transform-center-y="50.241881"
                 d="m 105.05838,221.99274 c 4e-5,8.8e-4 -3e-5,0.002 0,0.003 0,0 2.73587,9.81328 10.51047,15.04559 7.7746,5.23231 15.44195,11.28355 15.44195,11.28355 -5.35632,-15.3121 -17.11739,-15.05142 -25.95242,-26.33173 z"
                 sodipodi:nodetypes="cczcc" /></g></g></g></g><g
         id="g4974"
         inkscape:transform-center-x="34.308576"
         inkscape:transform-center-y="72.650431"
         transform="rotate(37.444452,145.00705,166.10377)"><g
           id="g4972"
           inkscape:transform-center-x="33.789576"
           inkscape:transform-center-y="61.696307"><g
             id="g4962"><g
               id="g4960"><path
                 id="path4956"
                 style="fill:#ff8200;fill-opacity:1;stroke-width:0.213005"
                 inkscape:transform-center-x="-34.773171"
                 inkscape:transform-center-y="50.241881"
                 d="m 105.05849,221.99282 c 8.83504,11.28032 20.59578,11.01975 25.95211,26.33186 -18.61616,-8.7477 -25.13702,-7.06071 -25.95211,-26.33186 z" /><path
                 id="path4958"
                 style="fill:#ffd800;fill-opacity:1;stroke-width:0.213005"
                 inkscape:transform-center-x="-34.773171"
                 inkscape:transform-center-y="50.241881"
                 d="m 105.05838,221.99274 c 4e-5,8.8e-4 -3e-5,0.002 0,0.003 0,0 2.73587,9.81328 10.51047,15.04559 7.7746,5.23231 15.44195,11.28355 15.44195,11.28355 -5.35632,-15.3121 -17.11739,-15.05142 -25.95242,-26.33173 z"
                 sodipodi:nodetypes="cczcc" /></g></g><g
             id="g4970"
             transform="matrix(0.69647391,0.71758212,0.71758212,-0.69647391,-138.81001,329.29365)"><g
               id="g4968"><path
                 id="path4964"
                 style="fill:#ffd800;fill-opacity:1;stroke-width:0.213005"
                 inkscape:transform-center-x="-34.773171"
                 inkscape:transform-center-y="50.241881"
                 d="m 105.05849,221.99282 c 8.83504,11.28032 20.59578,11.01975 25.95211,26.33186 -18.61616,-8.7477 -25.13702,-7.06071 -25.95211,-26.33186 z" /><path
                 id="path4966"
                 style="fill:#ff8200;fill-opacity:1;stroke-width:0.213005"
                 inkscape:transform-center-x="-34.773171"
                 inkscape:transform-center-y="50.241881"
                 d="m 105.05838,221.99274 c 4e-5,8.8e-4 -3e-5,0.002 0,0.003 0,0 2.73587,9.81328 10.51047,15.04559 7.7746,5.23231 15.44195,11.28355 15.44195,11.28355 -5.35632,-15.3121 -17.11739,-15.05142 -25.95242,-26.33173 z"
                 sodipodi:nodetypes="cczcc" /></g></g></g></g><g
         id="g4994"
         inkscape:transform-center-x="34.308576"
         inkscape:transform-center-y="72.650431"
         transform="rotate(55.513248,145.16795,165.46128)"><g
           id="g4992"
           inkscape:transform-center-x="33.789576"
           inkscape:transform-center-y="61.696307"><g
             id="g4982"><g
               id="g4980"><path
                 id="path4976"
                 style="fill:#ff8200;fill-opacity:1;stroke-width:0.213005"
                 inkscape:transform-center-x="-34.773171"
                 inkscape:transform-center-y="50.241881"
                 d="m 105.05849,221.99282 c 8.83504,11.28032 20.59578,11.01975 25.95211,26.33186 -18.61616,-8.7477 -25.13702,-7.06071 -25.95211,-26.33186 z" /><path
                 id="path4978"
                 style="fill:#ffd800;fill-opacity:1;stroke-width:0.213005"
                 inkscape:transform-center-x="-34.773171"
                 inkscape:transform-center-y="50.241881"
                 d="m 105.05838,221.99274 c 4e-5,8.8e-4 -3e-5,0.002 0,0.003 0,0 2.73587,9.81328 10.51047,15.04559 7.7746,5.23231 15.44195,11.28355 15.44195,11.28355 -5.35632,-15.3121 -17.11739,-15.05142 -25.95242,-26.33173 z"
                 sodipodi:nodetypes="cczcc" /></g></g><g
             id="g4990"
             transform="matrix(0.69647391,0.71758212,0.71758212,-0.69647391,-138.81001,329.29365)"><g
               id="g4988"><path
                 id="path4984"
                 style="fill:#ffd800;fill-opacity:1;stroke-width:0.213005"
                 inkscape:transform-center-x="-34.773171"
                 inkscape:transform-center-y="50.241881"
                 d="m 105.05849,221.99282 c 8.83504,11.28032 20.59578,11.01975 25.95211,26.33186 -18.61616,-8.7477 -25.13702,-7.06071 -25.95211,-26.33186 z" /><path
                 id="path4986"
                 style="fill:#ff8200;fill-opacity:1;stroke-width:0.213005"
                 inkscape:transform-center-x="-34.773171"
                 inkscape:transform-center-y="50.241881"
                 d="m 105.05838,221.99274 c 4e-5,8.8e-4 -3e-5,0.002 0,0.003 0,0 2.73587,9.81328 10.51047,15.04559 7.7746,5.23231 15.44195,11.28355 15.44195,11.28355 -5.35632,-15.3121 -17.11739,-15.05142 -25.95242,-26.33173 z"
                 sodipodi:nodetypes="cczcc" /></g></g></g></g><g
         id="g5014"
         inkscape:transform-center-x="34.308576"
         inkscape:transform-center-y="72.650431"
         transform="rotate(74.303034,145.25685,165.10629)"><g
           id="g5012"
           inkscape:transform-center-x="33.789576"
           inkscape:transform-center-y="61.696307"><g
             id="g5002"><g
               id="g5000"><path
                 id="path4996"
                 style="fill:#ff8200;fill-opacity:1;stroke-width:0.213005"
                 inkscape:transform-center-x="-34.773171"
                 inkscape:transform-center-y="50.241881"
                 d="m 105.05849,221.99282 c 8.83504,11.28032 20.59578,11.01975 25.95211,26.33186 -18.61616,-8.7477 -25.13702,-7.06071 -25.95211,-26.33186 z" /><path
                 id="path4998"
                 style="fill:#ffd800;fill-opacity:1;stroke-width:0.213005"
                 inkscape:transform-center-x="-34.773171"
                 inkscape:transform-center-y="50.241881"
                 d="m 105.05838,221.99274 c 4e-5,8.8e-4 -3e-5,0.002 0,0.003 0,0 2.73587,9.81328 10.51047,15.04559 7.7746,5.23231 15.44195,11.28355 15.44195,11.28355 -5.35632,-15.3121 -17.11739,-15.05142 -25.95242,-26.33173 z"
                 sodipodi:nodetypes="cczcc" /></g></g><g
             id="g5010"
             transform="matrix(0.69647391,0.71758212,0.71758212,-0.69647391,-138.81001,329.29365)"><g
               id="g5008"><path
                 id="path5004"
                 style="fill:#ffd800;fill-opacity:1;stroke-width:0.213005"
                 inkscape:transform-center-x="-34.773171"
                 inkscape:transform-center-y="50.241881"
                 d="m 105.05849,221.99282 c 8.83504,11.28032 20.59578,11.01975 25.95211,26.33186 -18.61616,-8.7477 -25.13702,-7.06071 -25.95211,-26.33186 z" /><path
                 id="path5006"
                 style="fill:#ff8200;fill-opacity:1;stroke-width:0.213005"
                 inkscape:transform-center-x="-34.773171"
                 inkscape:transform-center-y="50.241881"
                 d="m 105.05838,221.99274 c 4e-5,8.8e-4 -3e-5,0.002 0,0.003 0,0 2.73587,9.81328 10.51047,15.04559 7.7746,5.23231 15.44195,11.28355 15.44195,11.28355 -5.35632,-15.3121 -17.11739,-15.05142 -25.95242,-26.33173 z"
                 sodipodi:nodetypes="cczcc" /></g></g></g></g><g
         id="g5034"
         inkscape:transform-center-x="34.308576"
         inkscape:transform-center-y="72.650431"
         transform="rotate(92.975253,145.31358,164.87974)"><g
           id="g5032"
           inkscape:transform-center-x="33.789576"
           inkscape:transform-center-y="61.696307"><g
             id="g5022"><g
               id="g5020"><path
                 id="path5016"
                 style="fill:#ff8200;fill-opacity:1;stroke-width:0.213005"
                 inkscape:transform-center-x="-34.773171"
                 inkscape:transform-center-y="50.241881"
                 d="m 105.05849,221.99282 c 8.83504,11.28032 20.59578,11.01975 25.95211,26.33186 -18.61616,-8.7477 -25.13702,-7.06071 -25.95211,-26.33186 z" /><path
                 id="path5018"
                 style="fill:#ffd800;fill-opacity:1;stroke-width:0.213005"
                 inkscape:transform-center-x="-34.773171"
                 inkscape:transform-center-y="50.241881"
                 d="m 105.05838,221.99274 c 4e-5,8.8e-4 -3e-5,0.002 0,0.003 0,0 2.73587,9.81328 10.51047,15.04559 7.7746,5.23231 15.44195,11.28355 15.44195,11.28355 -5.35632,-15.3121 -17.11739,-15.05142 -25.95242,-26.33173 z"
                 sodipodi:nodetypes="cczcc" /></g></g><g
             id="g5030"
             transform="matrix(0.69647391,0.71758212,0.71758212,-0.69647391,-138.81001,329.29365)"><g
               id="g5028"><path
                 id="path5024"
                 style="fill:#ffd800;fill-opacity:1;stroke-width:0.213005"
                 inkscape:transform-center-x="-34.773171"
                 inkscape:transform-center-y="50.241881"
                 d="m 105.05849,221.99282 c 8.83504,11.28032 20.59578,11.01975 25.95211,26.33186 -18.61616,-8.7477 -25.13702,-7.06071 -25.95211,-26.33186 z" /><path
                 id="path5026"
                 style="fill:#ff8200;fill-opacity:1;stroke-width:0.213005"
                 inkscape:transform-center-x="-34.773171"
                 inkscape:transform-center-y="50.241881"
                 d="m 105.05838,221.99274 c 4e-5,8.8e-4 -3e-5,0.002 0,0.003 0,0 2.73587,9.81328 10.51047,15.04559 7.7746,5.23231 15.44195,11.28355 15.44195,11.28355 -5.35632,-15.3121 -17.11739,-15.05142 -25.95242,-26.33173 z"
                 sodipodi:nodetypes="cczcc" /></g></g></g></g><g
         id="g5054"
         inkscape:transform-center-x="34.308576"
         inkscape:transform-center-y="72.650431"
         transform="rotate(111.75515,145.35521,164.71353)"><g
           id="g5052"
           inkscape:transform-center-x="33.789576"
           inkscape:transform-center-y="61.696307"><g
             id="g5042"><g
               id="g5040"><path
                 id="path5036"
                 style="fill:#ff8200;fill-opacity:1;stroke-width:0.213005"
                 inkscape:transform-center-x="-34.773171"
                 inkscape:transform-center-y="50.241881"
                 d="m 105.05849,221.99282 c 8.83504,11.28032 20.59578,11.01975 25.95211,26.33186 -18.61616,-8.7477 -25.13702,-7.06071 -25.95211,-26.33186 z" /><path
                 id="path5038"
                 style="fill:#ffd800;fill-opacity:1;stroke-width:0.213005"
                 inkscape:transform-center-x="-34.773171"
                 inkscape:transform-center-y="50.241881"
                 d="m 105.05838,221.99274 c 4e-5,8.8e-4 -3e-5,0.002 0,0.003 0,0 2.73587,9.81328 10.51047,15.04559 7.7746,5.23231 15.44195,11.28355 15.44195,11.28355 -5.35632,-15.3121 -17.11739,-15.05142 -25.95242,-26.33173 z"
                 sodipodi:nodetypes="cczcc" /></g></g><g
             id="g5050"
             transform="matrix(0.69647391,0.71758212,0.71758212,-0.69647391,-138.81001,329.29365)"><g
               id="g5048"><path
                 id="path5044"
                 style="fill:#ffd800;fill-opacity:1;stroke-width:0.213005"
                 inkscape:transform-center-x="-34.773171"
                 inkscape:transform-center-y="50.241881"
                 d="m 105.05849,221.99282 c 8.83504,11.28032 20.59578,11.01975 25.95211,26.33186 -18.61616,-8.7477 -25.13702,-7.06071 -25.95211,-26.33186 z" /><path
                 id="path5046"
                 style="fill:#ff8200;fill-opacity:1;stroke-width:0.213005"
                 inkscape:transform-center-x="-34.773171"
                 inkscape:transform-center-y="50.241881"
                 d="m 105.05838,221.99274 c 4e-5,8.8e-4 -3e-5,0.002 0,0.003 0,0 2.73587,9.81328 10.51047,15.04559 7.7746,5.23231 15.44195,11.28355 15.44195,11.28355 -5.35632,-15.3121 -17.11739,-15.05142 -25.95242,-26.33173 z"
                 sodipodi:nodetypes="cczcc" /></g></g></g></g><g
         id="g4714"
         inkscape:transform-center-x="35.960422"
         inkscape:transform-center-y="-79.677834"
         transform="rotate(131.57704,145.39012,164.5741)"
         inkscape:label="g4714"><g
           id="g2525"
           inkscape:transform-center-x="33.789576"
           inkscape:transform-center-y="61.696307"><g
             id="g2507"><g
               id="g2365"><path
                 id="path23467"
                 style="fill:#ff8200;fill-opacity:1;stroke-width:0.213005"
                 inkscape:transform-center-x="-34.773171"
                 inkscape:transform-center-y="50.241881"
                 d="m 105.05849,221.99282 c 8.83504,11.28032 20.59578,11.01975 25.95211,26.33186 -18.61616,-8.7477 -25.13702,-7.06071 -25.95211,-26.33186 z" /><path
                 id="path2145"
                 style="fill:#ffd800;fill-opacity:1;stroke-width:0.213005"
                 inkscape:transform-center-x="-34.773171"
                 inkscape:transform-center-y="50.241881"
                 d="m 105.05838,221.99274 c 4e-5,8.8e-4 -3e-5,0.002 0,0.003 0,0 2.73587,9.81328 10.51047,15.04559 7.7746,5.23231 15.44195,11.28355 15.44195,11.28355 -5.35632,-15.3121 -17.11739,-15.05142 -25.95242,-26.33173 z"
                 sodipodi:nodetypes="cczcc" /></g></g><g
             id="g2515"
             transform="matrix(0.69647391,0.71758212,0.71758212,-0.69647391,-138.81001,329.29365)"><g
               id="g2513"><path
                 id="path2509"
                 style="fill:#ffd800;fill-opacity:1;stroke-width:0.213005"
                 inkscape:transform-center-x="-34.773171"
                 inkscape:transform-center-y="50.241881"
                 d="m 105.05849,221.99282 c 8.83504,11.28032 20.59578,11.01975 25.95211,26.33186 -18.61616,-8.7477 -25.13702,-7.06071 -25.95211,-26.33186 z" /><path
                 id="path2511"
                 style="fill:#ff8200;fill-opacity:1;stroke-width:0.213005"
                 inkscape:transform-center-x="-34.773171"
                 inkscape:transform-center-y="50.241881"
                 d="m 105.05838,221.99274 c 4e-5,8.8e-4 -3e-5,0.002 0,0.003 0,0 2.73587,9.81328 10.51047,15.04559 7.7746,5.23231 15.44195,11.28355 15.44195,11.28355 -5.35632,-15.3121 -17.11739,-15.05142 -25.95242,-26.33173 z"
                 sodipodi:nodetypes="cczcc" /></g></g></g></g></g><path
       id="rect6885"
       style="display:inline;fill:url(#linearGradient8214);fill-opacity:1;stroke-width:0.578874"
       sodipodi:type="inkscape:offset"
       inkscape:radius="0.0062694657"
       inkscape:original="M 22.414062 36.15625 C 19.732817 36.15625 17.574219 38.979732 17.574219 42.486328 L 17.574219 51.929688 L 17.574219 61.373047 C 17.574219 64.87964 19.732819 67.703125 22.414062 67.703125 L 60.365234 67.703125 C 60.748711 67.703125 61.121207 67.642435 61.478516 67.533203 L 69.914062 67.533203 L 76.875 51.966797 L 83.837891 36.398438 L 61.695312 36.398438 C 61.272788 36.24181 60.827146 36.15625 60.365234 36.15625 L 22.414062 36.15625 z "
       d="m 22.414062,36.15625 c -2.681245,0 -4.839843,2.823482 -4.839843,6.330078 v 9.44336 9.443359 c 0,3.506593 2.1586,6.330078 4.839843,6.330078 h 37.951172 c 0.383477,0 0.755973,-0.06069 1.113282,-0.169922 h 8.435546 L 76.875,51.966797 83.837891,36.398438 H 61.695312 C 61.272788,36.24181 60.827146,36.15625 60.365234,36.15625 Z"
       transform="matrix(0.78326483,0,0,1,3.8089512,0)"
       inkscape:label="rectangle-or" /><text
       xml:space="preserve"
       transform="matrix(0.26458333,0,0,0.26458333,6.1821272,11.833518)"
       id="text14429"
       style="font-style:normal;font-variant:normal;font-weight:normal;font-stretch:normal;font-size:56px;line-height:0;font-family:sans-serif;-inkscape-font-specification:sans-serif;letter-spacing:0px;white-space:pre;shape-inside:url(#rect14431);display:inline;fill:#ffffff;fill-opacity:1;stroke-width:2.50205"><tspan
         x="307.68555"
         y="171.69922"
         id="tspan9691">Email</tspan></text><g
       id="g16188"
       transform="matrix(0.06319409,0,0,0.06319409,25.722184,43.476835)"
       style="display:inline;fill:#ffffff"
       inkscape:label="icon"><path
         d="M 0.351562,14.222656 C 0.203125,14.808594 0.0859375,15.402344 0,16 V 265.375 L 150.86328,114.51172 Z m 0,0"
         id="path16170"
         style="fill:#ffffff" /><path
         d="M 411.29687,0 H 36.703125 L 224,124.76953 Z m 0,0"
         id="path16172"
         style="fill:#ffffff" /><path
         d="m 448,16 c -0.0859,-0.597656 -0.20313,-1.191406 -0.35156,-1.777344 L 297.13672,114.51172 448,265.375 Z m 0,0"
         id="path16174"
         style="fill:#ffffff" /><path
         d="m 269.96875,132.59375 -37.08984,24.71875 c -5.375,3.58594 -12.38282,3.58594 -17.75782,0 L 178.03125,132.59375 22.625,288 h 402.75 z m 0,0"
         id="path16176"
         style="fill:#ffffff" /></g></g></svg>
