<?xml version="1.0" encoding="UTF-8" standalone="no"?>
<!-- Created with Inkscape (http://www.inkscape.org/) -->

<svg
   width="88.420128mm"
   height="210.88091mm"
   viewBox="0 0 88.420128 210.88091"
   version="1.1"
   id="svg5"
   inkscape:version="1.2 (1:1.2.1+202207142221+cd75a1ee6d)"
   sodipodi:docname="laurel-left.svg"
   xmlns:inkscape="http://www.inkscape.org/namespaces/inkscape"
   xmlns:sodipodi="http://sodipodi.sourceforge.net/DTD/sodipodi-0.dtd"
   xmlns="http://www.w3.org/2000/svg"
   xmlns:svg="http://www.w3.org/2000/svg">
  <sodipodi:namedview
     id="namedview7"
     pagecolor="#ffffff"
     bordercolor="#000000"
     borderopacity="0.25"
     inkscape:showpageshadow="2"
     inkscape:pageopacity="0.0"
     inkscape:pagecheckerboard="0"
     inkscape:deskcolor="#d1d1d1"
     inkscape:document-units="mm"
     showgrid="false"
     inkscape:zoom="0.75722503"
     inkscape:cx="249.59555"
     inkscape:cy="412.69106"
     inkscape:window-width="1920"
     inkscape:window-height="1016"
     inkscape:window-x="0"
     inkscape:window-y="27"
     inkscape:window-maximized="1"
     inkscape:current-layer="layer1" />
  <defs
     id="defs2" />
  <g
     inkscape:label="Calque 1"
     inkscape:groupmode="layer"
     id="layer1"
     transform="translate(-2.998764,-1.0434073)">
    <g
       id="g5157"
       inkscape:label="gauche"
       style="display:inline;fill:#000000;fill-opacity:0.508608"
       transform="translate(-43.26475,-68.095053)">
      <g
         id="g7243">
        <path
           style="display:inline;fill:#ffd800;fill-opacity:1;stroke-width:0.555496"
           d="m 134.68364,253.7237 -2.78341,-2.31982 c -10.48924,18.18099 -17.57054,20.14513 -24.96125,23.58164 l 4.99814,5.03385 c 10.81605,-5.23837 16.36626,-16.88292 22.74652,-26.29567 z"
           id="path23542"
           sodipodi:nodetypes="ccccc" />
        <path
           id="path23434"
           style="fill:#ff8200;fill-opacity:1;stroke-width:0.555496"
           d="m 133.11709,252.564 c -7.54132,13.97328 -15.36204,20.16408 -23.85384,24.93853 l 2.49907,2.51664 c 10.81604,-5.23837 16.36617,-16.88281 22.74642,-26.29555 l -1.39113,-1.15962 z"
           sodipodi:nodetypes="cccccc" />
      </g>
      <g
         id="g4934"
         inkscape:transform-center-x="34.308576"
         inkscape:transform-center-y="72.650431"
         transform="rotate(1.2147951,131.0108,221.99274)">
        <g
           id="g4932"
           inkscape:transform-center-x="33.789576"
           inkscape:transform-center-y="61.696307">
          <g
             id="g4922">
            <g
               id="g4920">
              <path
                 id="path4916"
                 style="fill:#ff8200;fill-opacity:1;stroke-width:0.213005"
                 inkscape:transform-center-x="-34.773171"
                 inkscape:transform-center-y="50.241881"
                 d="m 105.05849,221.99282 c 8.83504,11.28032 20.59578,11.01975 25.95211,26.33186 -18.61616,-8.7477 -25.13702,-7.06071 -25.95211,-26.33186 z" />
              <path
                 id="path4918"
                 style="fill:#ffd800;fill-opacity:1;stroke-width:0.213005"
                 inkscape:transform-center-x="-34.773171"
                 inkscape:transform-center-y="50.241881"
                 d="m 105.05838,221.99274 c 4e-5,8.8e-4 -3e-5,0.002 0,0.003 0,0 2.73587,9.81328 10.51047,15.04559 7.7746,5.23231 15.44195,11.28355 15.44195,11.28355 -5.35632,-15.3121 -17.11739,-15.05142 -25.95242,-26.33173 z"
                 sodipodi:nodetypes="cczcc" />
            </g>
          </g>
          <g
             id="g4930"
             transform="matrix(0.69647391,0.71758212,0.71758212,-0.69647391,-138.81001,329.29365)">
            <g
               id="g4928">
              <path
                 id="path4924"
                 style="fill:#ffd800;fill-opacity:1;stroke-width:0.213005"
                 inkscape:transform-center-x="-34.773171"
                 inkscape:transform-center-y="50.241881"
                 d="m 105.05849,221.99282 c 8.83504,11.28032 20.59578,11.01975 25.95211,26.33186 -18.61616,-8.7477 -25.13702,-7.06071 -25.95211,-26.33186 z" />
              <path
                 id="path4926"
                 style="fill:#ff8200;fill-opacity:1;stroke-width:0.213005"
                 inkscape:transform-center-x="-34.773171"
                 inkscape:transform-center-y="50.241881"
                 d="m 105.05838,221.99274 c 4e-5,8.8e-4 -3e-5,0.002 0,0.003 0,0 2.73587,9.81328 10.51047,15.04559 7.7746,5.23231 15.44195,11.28355 15.44195,11.28355 -5.35632,-15.3121 -17.11739,-15.05142 -25.95242,-26.33173 z"
                 sodipodi:nodetypes="cczcc" />
            </g>
          </g>
        </g>
      </g>
      <g
         id="g4954"
         inkscape:transform-center-x="34.308576"
         inkscape:transform-center-y="72.650431"
         transform="rotate(19.515331,144.5683,167.85574)">
        <g
           id="g4952"
           inkscape:transform-center-x="33.789576"
           inkscape:transform-center-y="61.696307">
          <g
             id="g4942">
            <g
               id="g4940">
              <path
                 id="path4936"
                 style="fill:#ff8200;fill-opacity:1;stroke-width:0.213005"
                 inkscape:transform-center-x="-34.773171"
                 inkscape:transform-center-y="50.241881"
                 d="m 105.05849,221.99282 c 8.83504,11.28032 20.59578,11.01975 25.95211,26.33186 -18.61616,-8.7477 -25.13702,-7.06071 -25.95211,-26.33186 z" />
              <path
                 id="path4938"
                 style="fill:#ffd800;fill-opacity:1;stroke-width:0.213005"
                 inkscape:transform-center-x="-34.773171"
                 inkscape:transform-center-y="50.241881"
                 d="m 105.05838,221.99274 c 4e-5,8.8e-4 -3e-5,0.002 0,0.003 0,0 2.73587,9.81328 10.51047,15.04559 7.7746,5.23231 15.44195,11.28355 15.44195,11.28355 -5.35632,-15.3121 -17.11739,-15.05142 -25.95242,-26.33173 z"
                 sodipodi:nodetypes="cczcc" />
            </g>
          </g>
          <g
             id="g4950"
             transform="matrix(0.69647391,0.71758212,0.71758212,-0.69647391,-138.81001,329.29365)">
            <g
               id="g4948">
              <path
                 id="path4944"
                 style="fill:#ffd800;fill-opacity:1;stroke-width:0.213005"
                 inkscape:transform-center-x="-34.773171"
                 inkscape:transform-center-y="50.241881"
                 d="m 105.05849,221.99282 c 8.83504,11.28032 20.59578,11.01975 25.95211,26.33186 -18.61616,-8.7477 -25.13702,-7.06071 -25.95211,-26.33186 z" />
              <path
                 id="path4946"
                 style="fill:#ff8200;fill-opacity:1;stroke-width:0.213005"
                 inkscape:transform-center-x="-34.773171"
                 inkscape:transform-center-y="50.241881"
                 d="m 105.05838,221.99274 c 4e-5,8.8e-4 -3e-5,0.002 0,0.003 0,0 2.73587,9.81328 10.51047,15.04559 7.7746,5.23231 15.44195,11.28355 15.44195,11.28355 -5.35632,-15.3121 -17.11739,-15.05142 -25.95242,-26.33173 z"
                 sodipodi:nodetypes="cczcc" />
            </g>
          </g>
        </g>
      </g>
      <g
         id="g4974"
         inkscape:transform-center-x="34.308576"
         inkscape:transform-center-y="72.650431"
         transform="rotate(37.444452,145.00705,166.10377)">
        <g
           id="g4972"
           inkscape:transform-center-x="33.789576"
           inkscape:transform-center-y="61.696307">
          <g
             id="g4962">
            <g
               id="g4960">
              <path
                 id="path4956"
                 style="fill:#ff8200;fill-opacity:1;stroke-width:0.213005"
                 inkscape:transform-center-x="-34.773171"
                 inkscape:transform-center-y="50.241881"
                 d="m 105.05849,221.99282 c 8.83504,11.28032 20.59578,11.01975 25.95211,26.33186 -18.61616,-8.7477 -25.13702,-7.06071 -25.95211,-26.33186 z" />
              <path
                 id="path4958"
                 style="fill:#ffd800;fill-opacity:1;stroke-width:0.213005"
                 inkscape:transform-center-x="-34.773171"
                 inkscape:transform-center-y="50.241881"
                 d="m 105.05838,221.99274 c 4e-5,8.8e-4 -3e-5,0.002 0,0.003 0,0 2.73587,9.81328 10.51047,15.04559 7.7746,5.23231 15.44195,11.28355 15.44195,11.28355 -5.35632,-15.3121 -17.11739,-15.05142 -25.95242,-26.33173 z"
                 sodipodi:nodetypes="cczcc" />
            </g>
          </g>
          <g
             id="g4970"
             transform="matrix(0.69647391,0.71758212,0.71758212,-0.69647391,-138.81001,329.29365)">
            <g
               id="g4968">
              <path
                 id="path4964"
                 style="fill:#ffd800;fill-opacity:1;stroke-width:0.213005"
                 inkscape:transform-center-x="-34.773171"
                 inkscape:transform-center-y="50.241881"
                 d="m 105.05849,221.99282 c 8.83504,11.28032 20.59578,11.01975 25.95211,26.33186 -18.61616,-8.7477 -25.13702,-7.06071 -25.95211,-26.33186 z" />
              <path
                 id="path4966"
                 style="fill:#ff8200;fill-opacity:1;stroke-width:0.213005"
                 inkscape:transform-center-x="-34.773171"
                 inkscape:transform-center-y="50.241881"
                 d="m 105.05838,221.99274 c 4e-5,8.8e-4 -3e-5,0.002 0,0.003 0,0 2.73587,9.81328 10.51047,15.04559 7.7746,5.23231 15.44195,11.28355 15.44195,11.28355 -5.35632,-15.3121 -17.11739,-15.05142 -25.95242,-26.33173 z"
                 sodipodi:nodetypes="cczcc" />
            </g>
          </g>
        </g>
      </g>
      <g
         id="g4994"
         inkscape:transform-center-x="34.308576"
         inkscape:transform-center-y="72.650431"
         transform="rotate(55.513248,145.16795,165.46128)">
        <g
           id="g4992"
           inkscape:transform-center-x="33.789576"
           inkscape:transform-center-y="61.696307">
          <g
             id="g4982">
            <g
               id="g4980">
              <path
                 id="path4976"
                 style="fill:#ff8200;fill-opacity:1;stroke-width:0.213005"
                 inkscape:transform-center-x="-34.773171"
                 inkscape:transform-center-y="50.241881"
                 d="m 105.05849,221.99282 c 8.83504,11.28032 20.59578,11.01975 25.95211,26.33186 -18.61616,-8.7477 -25.13702,-7.06071 -25.95211,-26.33186 z" />
              <path
                 id="path4978"
                 style="fill:#ffd800;fill-opacity:1;stroke-width:0.213005"
                 inkscape:transform-center-x="-34.773171"
                 inkscape:transform-center-y="50.241881"
                 d="m 105.05838,221.99274 c 4e-5,8.8e-4 -3e-5,0.002 0,0.003 0,0 2.73587,9.81328 10.51047,15.04559 7.7746,5.23231 15.44195,11.28355 15.44195,11.28355 -5.35632,-15.3121 -17.11739,-15.05142 -25.95242,-26.33173 z"
                 sodipodi:nodetypes="cczcc" />
            </g>
          </g>
          <g
             id="g4990"
             transform="matrix(0.69647391,0.71758212,0.71758212,-0.69647391,-138.81001,329.29365)">
            <g
               id="g4988">
              <path
                 id="path4984"
                 style="fill:#ffd800;fill-opacity:1;stroke-width:0.213005"
                 inkscape:transform-center-x="-34.773171"
                 inkscape:transform-center-y="50.241881"
                 d="m 105.05849,221.99282 c 8.83504,11.28032 20.59578,11.01975 25.95211,26.33186 -18.61616,-8.7477 -25.13702,-7.06071 -25.95211,-26.33186 z" />
              <path
                 id="path4986"
                 style="fill:#ff8200;fill-opacity:1;stroke-width:0.213005"
                 inkscape:transform-center-x="-34.773171"
                 inkscape:transform-center-y="50.241881"
                 d="m 105.05838,221.99274 c 4e-5,8.8e-4 -3e-5,0.002 0,0.003 0,0 2.73587,9.81328 10.51047,15.04559 7.7746,5.23231 15.44195,11.28355 15.44195,11.28355 -5.35632,-15.3121 -17.11739,-15.05142 -25.95242,-26.33173 z"
                 sodipodi:nodetypes="cczcc" />
            </g>
          </g>
        </g>
      </g>
      <g
         id="g5014"
         inkscape:transform-center-x="34.308576"
         inkscape:transform-center-y="72.650431"
         transform="rotate(74.303034,145.25685,165.10629)">
        <g
           id="g5012"
           inkscape:transform-center-x="33.789576"
           inkscape:transform-center-y="61.696307">
          <g
             id="g5002">
            <g
               id="g5000">
              <path
                 id="path4996"
                 style="fill:#ff8200;fill-opacity:1;stroke-width:0.213005"
                 inkscape:transform-center-x="-34.773171"
                 inkscape:transform-center-y="50.241881"
                 d="m 105.05849,221.99282 c 8.83504,11.28032 20.59578,11.01975 25.95211,26.33186 -18.61616,-8.7477 -25.13702,-7.06071 -25.95211,-26.33186 z" />
              <path
                 id="path4998"
                 style="fill:#ffd800;fill-opacity:1;stroke-width:0.213005"
                 inkscape:transform-center-x="-34.773171"
                 inkscape:transform-center-y="50.241881"
                 d="m 105.05838,221.99274 c 4e-5,8.8e-4 -3e-5,0.002 0,0.003 0,0 2.73587,9.81328 10.51047,15.04559 7.7746,5.23231 15.44195,11.28355 15.44195,11.28355 -5.35632,-15.3121 -17.11739,-15.05142 -25.95242,-26.33173 z"
                 sodipodi:nodetypes="cczcc" />
            </g>
          </g>
          <g
             id="g5010"
             transform="matrix(0.69647391,0.71758212,0.71758212,-0.69647391,-138.81001,329.29365)">
            <g
               id="g5008">
              <path
                 id="path5004"
                 style="fill:#ffd800;fill-opacity:1;stroke-width:0.213005"
                 inkscape:transform-center-x="-34.773171"
                 inkscape:transform-center-y="50.241881"
                 d="m 105.05849,221.99282 c 8.83504,11.28032 20.59578,11.01975 25.95211,26.33186 -18.61616,-8.7477 -25.13702,-7.06071 -25.95211,-26.33186 z" />
              <path
                 id="path5006"
                 style="fill:#ff8200;fill-opacity:1;stroke-width:0.213005"
                 inkscape:transform-center-x="-34.773171"
                 inkscape:transform-center-y="50.241881"
                 d="m 105.05838,221.99274 c 4e-5,8.8e-4 -3e-5,0.002 0,0.003 0,0 2.73587,9.81328 10.51047,15.04559 7.7746,5.23231 15.44195,11.28355 15.44195,11.28355 -5.35632,-15.3121 -17.11739,-15.05142 -25.95242,-26.33173 z"
                 sodipodi:nodetypes="cczcc" />
            </g>
          </g>
        </g>
      </g>
      <g
         id="g5034"
         inkscape:transform-center-x="34.308576"
         inkscape:transform-center-y="72.650431"
         transform="rotate(92.975253,145.31358,164.87974)">
        <g
           id="g5032"
           inkscape:transform-center-x="33.789576"
           inkscape:transform-center-y="61.696307">
          <g
             id="g5022">
            <g
               id="g5020">
              <path
                 id="path5016"
                 style="fill:#ff8200;fill-opacity:1;stroke-width:0.213005"
                 inkscape:transform-center-x="-34.773171"
                 inkscape:transform-center-y="50.241881"
                 d="m 105.05849,221.99282 c 8.83504,11.28032 20.59578,11.01975 25.95211,26.33186 -18.61616,-8.7477 -25.13702,-7.06071 -25.95211,-26.33186 z" />
              <path
                 id="path5018"
                 style="fill:#ffd800;fill-opacity:1;stroke-width:0.213005"
                 inkscape:transform-center-x="-34.773171"
                 inkscape:transform-center-y="50.241881"
                 d="m 105.05838,221.99274 c 4e-5,8.8e-4 -3e-5,0.002 0,0.003 0,0 2.73587,9.81328 10.51047,15.04559 7.7746,5.23231 15.44195,11.28355 15.44195,11.28355 -5.35632,-15.3121 -17.11739,-15.05142 -25.95242,-26.33173 z"
                 sodipodi:nodetypes="cczcc" />
            </g>
          </g>
          <g
             id="g5030"
             transform="matrix(0.69647391,0.71758212,0.71758212,-0.69647391,-138.81001,329.29365)">
            <g
               id="g5028">
              <path
                 id="path5024"
                 style="fill:#ffd800;fill-opacity:1;stroke-width:0.213005"
                 inkscape:transform-center-x="-34.773171"
                 inkscape:transform-center-y="50.241881"
                 d="m 105.05849,221.99282 c 8.83504,11.28032 20.59578,11.01975 25.95211,26.33186 -18.61616,-8.7477 -25.13702,-7.06071 -25.95211,-26.33186 z" />
              <path
                 id="path5026"
                 style="fill:#ff8200;fill-opacity:1;stroke-width:0.213005"
                 inkscape:transform-center-x="-34.773171"
                 inkscape:transform-center-y="50.241881"
                 d="m 105.05838,221.99274 c 4e-5,8.8e-4 -3e-5,0.002 0,0.003 0,0 2.73587,9.81328 10.51047,15.04559 7.7746,5.23231 15.44195,11.28355 15.44195,11.28355 -5.35632,-15.3121 -17.11739,-15.05142 -25.95242,-26.33173 z"
                 sodipodi:nodetypes="cczcc" />
            </g>
          </g>
        </g>
      </g>
      <g
         id="g5054"
         inkscape:transform-center-x="34.308576"
         inkscape:transform-center-y="72.650431"
         transform="rotate(111.75515,145.35521,164.71353)">
        <g
           id="g5052"
           inkscape:transform-center-x="33.789576"
           inkscape:transform-center-y="61.696307">
          <g
             id="g5042">
            <g
               id="g5040">
              <path
                 id="path5036"
                 style="fill:#ff8200;fill-opacity:1;stroke-width:0.213005"
                 inkscape:transform-center-x="-34.773171"
                 inkscape:transform-center-y="50.241881"
                 d="m 105.05849,221.99282 c 8.83504,11.28032 20.59578,11.01975 25.95211,26.33186 -18.61616,-8.7477 -25.13702,-7.06071 -25.95211,-26.33186 z" />
              <path
                 id="path5038"
                 style="fill:#ffd800;fill-opacity:1;stroke-width:0.213005"
                 inkscape:transform-center-x="-34.773171"
                 inkscape:transform-center-y="50.241881"
                 d="m 105.05838,221.99274 c 4e-5,8.8e-4 -3e-5,0.002 0,0.003 0,0 2.73587,9.81328 10.51047,15.04559 7.7746,5.23231 15.44195,11.28355 15.44195,11.28355 -5.35632,-15.3121 -17.11739,-15.05142 -25.95242,-26.33173 z"
                 sodipodi:nodetypes="cczcc" />
            </g>
          </g>
          <g
             id="g5050"
             transform="matrix(0.69647391,0.71758212,0.71758212,-0.69647391,-138.81001,329.29365)">
            <g
               id="g5048">
              <path
                 id="path5044"
                 style="fill:#ffd800;fill-opacity:1;stroke-width:0.213005"
                 inkscape:transform-center-x="-34.773171"
                 inkscape:transform-center-y="50.241881"
                 d="m 105.05849,221.99282 c 8.83504,11.28032 20.59578,11.01975 25.95211,26.33186 -18.61616,-8.7477 -25.13702,-7.06071 -25.95211,-26.33186 z" />
              <path
                 id="path5046"
                 style="fill:#ff8200;fill-opacity:1;stroke-width:0.213005"
                 inkscape:transform-center-x="-34.773171"
                 inkscape:transform-center-y="50.241881"
                 d="m 105.05838,221.99274 c 4e-5,8.8e-4 -3e-5,0.002 0,0.003 0,0 2.73587,9.81328 10.51047,15.04559 7.7746,5.23231 15.44195,11.28355 15.44195,11.28355 -5.35632,-15.3121 -17.11739,-15.05142 -25.95242,-26.33173 z"
                 sodipodi:nodetypes="cczcc" />
            </g>
          </g>
        </g>
      </g>
      <g
         id="g4714"
         inkscape:transform-center-x="35.960422"
         inkscape:transform-center-y="-79.677834"
         transform="rotate(131.57704,145.39012,164.5741)">
        <g
           id="g2525"
           inkscape:transform-center-x="33.789576"
           inkscape:transform-center-y="61.696307">
          <g
             id="g2507">
            <g
               id="g2365">
              <path
                 id="path23467"
                 style="fill:#ff8200;fill-opacity:1;stroke-width:0.213005"
                 inkscape:transform-center-x="-34.773171"
                 inkscape:transform-center-y="50.241881"
                 d="m 105.05849,221.99282 c 8.83504,11.28032 20.59578,11.01975 25.95211,26.33186 -18.61616,-8.7477 -25.13702,-7.06071 -25.95211,-26.33186 z" />
              <path
                 id="path2145"
                 style="fill:#ffd800;fill-opacity:1;stroke-width:0.213005"
                 inkscape:transform-center-x="-34.773171"
                 inkscape:transform-center-y="50.241881"
                 d="m 105.05838,221.99274 c 4e-5,8.8e-4 -3e-5,0.002 0,0.003 0,0 2.73587,9.81328 10.51047,15.04559 7.7746,5.23231 15.44195,11.28355 15.44195,11.28355 -5.35632,-15.3121 -17.11739,-15.05142 -25.95242,-26.33173 z"
                 sodipodi:nodetypes="cczcc" />
            </g>
          </g>
          <g
             id="g2515"
             transform="matrix(0.69647391,0.71758212,0.71758212,-0.69647391,-138.81001,329.29365)">
            <g
               id="g2513">
              <path
                 id="path2509"
                 style="fill:#ffd800;fill-opacity:1;stroke-width:0.213005"
                 inkscape:transform-center-x="-34.773171"
                 inkscape:transform-center-y="50.241881"
                 d="m 105.05849,221.99282 c 8.83504,11.28032 20.59578,11.01975 25.95211,26.33186 -18.61616,-8.7477 -25.13702,-7.06071 -25.95211,-26.33186 z" />
              <path
                 id="path2511"
                 style="fill:#ff8200;fill-opacity:1;stroke-width:0.213005"
                 inkscape:transform-center-x="-34.773171"
                 inkscape:transform-center-y="50.241881"
                 d="m 105.05838,221.99274 c 4e-5,8.8e-4 -3e-5,0.002 0,0.003 0,0 2.73587,9.81328 10.51047,15.04559 7.7746,5.23231 15.44195,11.28355 15.44195,11.28355 -5.35632,-15.3121 -17.11739,-15.05142 -25.95242,-26.33173 z"
                 sodipodi:nodetypes="cczcc" />
            </g>
          </g>
        </g>
      </g>
    </g>
  </g>
</svg>
